<svg xmlns="http://www.w3.org/2000/svg" viewBox="0 0 1921.52 1073.05">
  <defs>
    <style>
      .cls-1 {
        fill: none;
      }

      .cls-1, .cls-2 {
        stroke: #000;
        stroke-miterlimit: 10;
      }

      .cls-2 {
        fill: #c92828;
      }
    </style>
  </defs>
  <g id="SVG">
    <path class="cls-1" d="M396.5,186.5h188v56h-188Z" transform="translate(0.5 -0.01)"/>
    <polygon class="cls-1" points="646 324.49 699 324.49 701 736.49 646 736.49 646 324.49"/>
    <rect class="cls-1" x="383" y="655.49" width="128" height="139"/>
    <rect class="cls-1" x="497" y="850.49" width="128" height="65"/>
    <polygon class="cls-1" points="224 850.49 398 888.49 383 970.49 224 970.49 224 850.49"/>
    <polygon class="cls-1" points="591 812.49 627 812.49 627 803.49 665 803.49 665 812.49 701 812.49 701 766.49 665 766.49 665 774.49 628 774.49 627 766.49 591 766.49 591 812.49"/>
    <rect class="cls-1" x="766" y="648.49" width="55" height="191"/>
    <rect class="cls-1" x="899" y="570.49" width="52" height="208"/>
    <rect class="cls-1" x="812" y="530.49" width="37" height="43"/>
    <rect class="cls-1" x="1044" y="377.49" width="135" height="128"/>
    <rect class="cls-2" x="721" y="103.49" width="58" height="188"/>
    <rect class="cls-1" x="800" y="155.49" width="22" height="89"/>
    <rect class="cls-1" x="839" y="103.49" width="55" height="188"/>
    <rect class="cls-1" x="904" y="155.49" width="40" height="89"/>
    <rect class="cls-1" x="956" y="103.49" width="48" height="188"/>
    <polygon class="cls-1" points="1071 103.49 1071 293.49 1120 293.49 1120 253.49 1130.84 253.49 1173 253.49 1173 244.49 1170 244.49 1171 178.49 1175 178.49 1175 103.49 1071 103.49"/>
    <polygon class="cls-1" points="1195 103.49 1195 176.49 1195 246.49 1188 246.49 1188 283.49 1188 293.49 1247 293.49 1247 103.49 1195 103.49"/>
    <rect class="cls-1" x="1319" y="50.49" width="60" height="39"/>
    <rect class="cls-1" x="1411" y="50.49" width="17" height="39"/>
    <polygon class="cls-1" points="1356 130.49 1400 130.49 1400 212.49 1374 212.49 1373 217.49 1360 217.49 1356 209.49 1356 130.49"/>
    <path class="cls-1" d="M1356.5,209.5l43-79Z" transform="translate(0.5 -0.01)"/>
    <polygon class="cls-1" points="1400 212.49 1400 246.49 1389 246.49 1389 272.49 1400 272.49 1400 350.49 1383 350.49 1383 361.49 1340 361.49 1340 274.49 1313 274.49 1313 229.49 1356 208.24 1357 209.49 1360 217.49 1373 217.49 1374 212.49 1400 212.49"/>
    <polygon class="cls-1" points="1384 361.49 1384 362.99 1384 378.49 1492 378.49 1492 326.49 1419 326.49 1419 350.49 1400 350.49 1384 350.49 1384 361.49"/>
    <rect class="cls-1" x="1466" y="128.49" width="68" height="68"/>
    <polygon class="cls-1" points="1522 295.49 1522 371.49 1543 371.49 1558 399.49 1609 384.49 1605 355.49 1622 341.49 1578 279.49 1553 294.49 1522 295.49"/>
    <polygon class="cls-1" points="1469 482.49 1543 482.49 1543 626.99 1543 664.49 1466 664.49 1469 482.49"/>
    <polygon class="cls-1" points="1587 627.49 1587 757.49 1448 757.49 1448 664.49 1466 664.49 1543 664.49 1543 627.49 1587 627.49"/>
    <rect class="cls-1" x="1587" y="690.49" width="40" height="93"/>
    <rect class="cls-1" x="1441" y="757.49" width="146" height="26"/>
    <rect class="cls-1" x="1100" y="591.49" width="48" height="207"/>
    <rect class="cls-1" x="1167" y="642.49" width="32" height="156"/>
    <rect class="cls-1" x="1236" y="642.49" width="48" height="208"/>
    <polygon class="cls-1" points="168 1006.49 289 1010.49 289 1051.49 165 1043.49 168 1006.49"/>
    <rect class="cls-1" x="1363" y="792.49" width="161" height="91"/>
    <polygon class="cls-1" points="1173 253.49 1188 253.49 1188 283.49 1173 283.49 1173 291.49 1130 291.49 1130 253.49 1173 253.49 1188 253.49 1173 253.49"/>
  </g>
  <g id="SVG_ALL" data-name="SVG ALL">
    <polygon class="cls-1" points="1696 40.49 1734 276.49 1734 691.49 1673 1020.49 1703 1020.49 1766 696.49 1766 277.49 1727 47.49 1696 40.49"/>
    <polyline class="cls-1" points="1272.5 49.49 737 49.49 287 48.49 99 49.49 99 1068.49 342.19 1072.55 1004 774.49 1039 777.49 1159 846.49 1580 993.49 1587 943.49 1631 944.49 1673 725.49 1681 291.49 1643 49.49 1306 50.49"/>
    <path class="cls-1" d="M122.5,69.5v-46l-123,1" transform="translate(0.5 -0.01)"/>
    <path class="cls-1" d="M629.5,23.5" transform="translate(0.5 -0.01)"/>
    <path class="cls-1" d="M122.5,69.5s4,24,18,33,23,15,41,13,355,0,355,0,57,0,62-44c0,0-4-43,26-47s86,0,86,0h914l296,60-1-35-228-49" transform="translate(0.5 -0.01)"/>
    <path class="cls-1" d="M150.5,23.5h390s32,0,32,35-32,31-32,31h-364s-24,0-26-20S150.5,23.5,150.5,23.5Z" transform="translate(0.5 -0.01)"/>
    <polyline class="cls-1" points="178.5 89.49 194 63.49 209 63.49 193.75 89.49"/>
    <polyline class="cls-1" points="209 63.49 538.5 63.49 555 63.49 539 89.49 523.25 89.49 538 64.49 539 63.49"/>
    <line class="cls-1" x1="522.34" y1="63.49" x2="508.17" y2="89.49"/>
    <line class="cls-1" x1="506.34" y1="63.49" x2="491.84" y2="89.49"/>
    <line class="cls-1" x1="491" y1="63.49" x2="476.75" y2="89.49"/>
    <line class="cls-1" x1="474.75" y1="63.49" x2="460.5" y2="89.49"/>
    <line class="cls-1" x1="460.5" y1="63.49" x2="444.5" y2="89.49"/>
    <line class="cls-1" x1="443.75" y1="63.49" x2="429" y2="89.49"/>
    <line class="cls-1" x1="428" y1="63.49" x2="413.5" y2="89.49"/>
    <line class="cls-1" x1="413.5" y1="63.49" x2="398.5" y2="89.49"/>
    <line class="cls-1" x1="397" y1="63.49" x2="382" y2="89.49"/>
    <line class="cls-1" x1="380" y1="63.49" x2="366.5" y2="89.49"/>
    <line class="cls-1" x1="366.5" y1="63.49" x2="351.5" y2="89.49"/>
    <path class="cls-1" d="M349.5,63.5" transform="translate(0.5 -0.01)"/>
    <line class="cls-1" x1="335.75" y1="89.63" x2="350" y2="63.49"/>
    <line class="cls-1" x1="334.75" y1="63.49" x2="319.75" y2="89.49"/>
    <line class="cls-1" x1="319.75" y1="63.49" x2="304" y2="89.49"/>
    <line class="cls-1" x1="304" y1="63.49" x2="288.75" y2="89.49"/>
    <line class="cls-1" x1="288.75" y1="63.49" x2="273.25" y2="89.49"/>
    <line class="cls-1" x1="272" y1="63.49" x2="257.75" y2="89.49"/>
    <line class="cls-1" x1="256" y1="63.49" x2="241.25" y2="89.49"/>
    <line class="cls-1" x1="240.25" y1="63.49" x2="226" y2="89.49"/>
    <line class="cls-1" x1="224" y1="63.49" x2="209" y2="89.49"/>
    <path class="cls-1" d="M539,115.41" transform="translate(0.5 -0.01)"/>
    <path class="cls-1" d="M98.5,144.5h502v50s0,7-15,6v13s18-2,15,7v38s5,14-11,13h-57s-5-1-4-12,0-17,0-17h-14v19s1,10-9,10h-67s-8,0-7-13,1-16,1-16h-12v16s3,15-8,13h-31v60h46s17,0,24-16,39-13,39-13h170l38,22" transform="translate(0.5 -0.01)"/>
    <path class="cls-1" d="M619.5,50.5v94h-8v115s-4,12,14,11,42,0,42,0,18,4,31,14,31,21,31,21h60s20,0,8-15l-15-17-5-1" transform="translate(0.5 -0.01)"/>
    <line class="cls-1" x1="540" y1="115.49" x2="555" y2="144.49"/>
    <line class="cls-1" x1="522.34" y1="115.87" x2="539.51" y2="144.49"/>
    <line class="cls-1" x1="508.17" y1="115.49" x2="525.5" y2="144.49"/>
    <line class="cls-1" x1="491.84" y1="115.25" x2="508.17" y2="144.49"/>
    <line class="cls-1" x1="476.75" y1="115.49" x2="494.5" y2="144.49"/>
    <line class="cls-1" x1="461.75" y1="115.1" x2="478.75" y2="144.49"/>
    <line class="cls-1" x1="446" y1="115.03" x2="462.75" y2="144.49"/>
    <line class="cls-1" x1="430.5" y1="114.97" x2="447.25" y2="144.49"/>
    <line class="cls-1" x1="413.5" y1="114.9" x2="432.25" y2="144.49"/>
    <line class="cls-1" x1="399" y1="114.84" x2="417.25" y2="144.49"/>
    <line class="cls-1" x1="384.5" y1="114.8" x2="402.75" y2="144.49"/>
    <path class="cls-1" d="M368.75,114.76" transform="translate(0.5 -0.01)"/>
    <line class="cls-1" x1="369" y1="114.49" x2="386.25" y2="144.49"/>
    <line class="cls-1" x1="353.5" y1="114.75" x2="371.5" y2="144.49"/>
    <line class="cls-1" x1="338.75" y1="114.49" x2="355.75" y2="144.49"/>
    <line class="cls-1" x1="323.84" y1="114.64" x2="340.84" y2="144.49"/>
    <line class="cls-1" x1="308.84" y1="114.64" x2="325.5" y2="144.49"/>
    <line class="cls-1" x1="292.84" y1="114.49" x2="308.84" y2="144.49"/>
    <line class="cls-1" x1="277.84" y1="114.64" x2="294.17" y2="144.49"/>
    <line class="cls-1" x1="262.17" y1="115.25" x2="277.84" y2="144.49"/>
    <line class="cls-1" x1="247.3" y1="114.64" x2="264.88" y2="144.49"/>
    <line class="cls-1" x1="233.13" y1="114.97" x2="248.63" y2="144.49"/>
    <line class="cls-1" x1="216.5" y1="114.64" x2="233.13" y2="144.49"/>
    <line class="cls-1" x1="201.17" y1="115.25" x2="216.5" y2="144.49"/>
    <line class="cls-1" x1="186.23" y1="115.25" x2="201.17" y2="144.49"/>
    <path class="cls-1" d="M894.5,273.5h6l16,22c3,11-10,11-10,11h-71c-16,0-19-9-19-9s-9-8-19-23-19-12-19-12" transform="translate(0.5 -0.01)"/>
    <polyline class="cls-1" points="620 65.49 637 65.49 637 50.49"/>
    <path class="cls-1" d="M1004.5,273.5h3l14,17s16,16-9,16-71-1-71-1l-31-35c-5-10-16-8-16-8" transform="translate(0.5 -0.01)"/>
    <path class="cls-1" d="M1004.5,262.5s9-1,14,6,24,30,24,30,3,8,14,8h63v-15" transform="translate(0.5 -0.01)"/>
    <path class="cls-1" d="M756.5,102.5c0-5-5-7-5-7h-30v-16h540s10.5-4,10-30" transform="translate(0.5 -0.01)"/>
    <path class="cls-1" d="M769.5,102.5s1-8,9-7,85,0,85,0,5,3,5,7" transform="translate(0.5 -0.01)"/>
    <path class="cls-1" d="M881.5,102.5s-1-8,13-7,79,0,79,0,6,2,7,7" transform="translate(0.5 -0.01)"/>
    <path class="cls-1" d="M991.5,102.5s1-8,10-7h93a10.39,10.39,0,0,1,5,7" transform="translate(0.5 -0.01)"/>
    <path class="cls-1" d="M1109.5,102.5s3-7,7-7h52s3,1,3,7" transform="translate(0.5 -0.01)"/>
    <path class="cls-1" d="M1194.5,102.5s-1-7,21-7h41s15,2,16,15c.17,2.19.28,7.88.35,15.83.14,16.16.11,41.64,0,66-.13,34.72-.37,67.17-.37,67.17l-25,3" transform="translate(0.5 -0.01)"/>
    <polyline class="cls-1" points="1273.1 245.99 1252 256.49 1252 243.49 1272.52 232.49"/>
    <polyline class="cls-1" points="1273.1 219.49 1252 232.49 1252 244.49"/>
    <polyline class="cls-1" points="1252 232.49 1252 217.49 1273.32 205.82"/>
    <polyline class="cls-1" points="1273 192.49 1252 205.49 1252 217.49"/>
    <polyline class="cls-1" points="1252 205.49 1252 191.49 1273.32 178.99"/>
    <polyline class="cls-1" points="1252 191.49 1252 179.49 1273.45 166.49"/>
    <line class="cls-1" x1="1252" y1="165.49" x2="1252" y2="179.49"/>
    <polyline class="cls-1" points="1273 139.49 1252 152.49 1252 166.49 1273.32 154.16"/>
    <polyline class="cls-1" points="1252 153.49 1252 139.49 1273 126.49"/>
    <polyline class="cls-1" points="1273.17 114.32 1252 126.49 1252 139.49"/>
    <path class="cls-1" d="M1246.5,274.5h26v19s-2,13-16,13h-85v-15" transform="translate(0.5 -0.01)"/>
    <line class="cls-1" x1="1172" y1="306.49" x2="1120" y2="306.49"/>
    <path class="cls-1" d="M1179.5,377.5h33s4,12,11,15c16.87,7.23,29,3,29,3s16-5,20-27-26-31-26-31h-203c-19,5-19,20-19,20v53h19" transform="translate(0.5 -0.01)"/>
    <polyline class="cls-1" points="1065.25 337.49 1053 362.49 1067.75 362.49 1158.75 362.49 1174 362.49 1219 362.49 1234 337.49"/>
    <line class="cls-1" x1="1080.25" y1="337.49" x2="1066.25" y2="362.49"/>
    <line class="cls-1" x1="1082.75" y1="362.49" x2="1096" y2="337.49"/>
    <line class="cls-1" x1="1111.25" y1="337.49" x2="1097" y2="362.49"/>
    <line class="cls-1" x1="1112.75" y1="362.49" x2="1126" y2="337.49"/>
    <line class="cls-1" x1="1127.75" y1="362.49" x2="1142" y2="337.49"/>
    <line class="cls-1" x1="1143.5" y1="362.49" x2="1156.75" y2="337.49"/>
    <line class="cls-1" x1="1172" y1="337.49" x2="1159" y2="362.49"/>
    <line class="cls-1" x1="1188.25" y1="337.49" x2="1174" y2="362.49"/>
    <line class="cls-1" x1="1202.5" y1="337.49" x2="1190.25" y2="362.49"/>
    <line class="cls-1" x1="1205.75" y1="362.49" x2="1218.75" y2="337.49"/>
    <polyline class="cls-1" points="1045 424.49 1025 424.49 1025 457.49 1045 457.49"/>
    <path class="cls-1" d="M1044.5,465.5h-20v37s3,16,22,20,24,6,24,6l163,50s22,7,31-6,8-14,8-14v-103s-5-26-32-26-30,30-30,30h-30" transform="translate(0.5 -0.01)"/>
    <polyline class="cls-1" points="1273 466.49 1244 487.49 1244.19 501.41 1244.4 516.16 1244.6 530.99 1245 560.49 1273 541.86"/>
    <line class="cls-1" x1="1244.81" y1="546.11" x2="1273" y2="527.11"/>
    <line class="cls-1" x1="1273" y1="512.11" x2="1244.81" y2="532.99"/>
    <line class="cls-1" x1="1244.4" y1="516.65" x2="1273.04" y2="496.16"/>
    <line class="cls-1" x1="1273" y1="480.99" x2="1244" y2="502.49"/>
    <polyline class="cls-1" points="1306 50.49 1306 117.49 1449 117.49 1449 324.49 1460 324.49 1460 247.49 1460 117.49 1497 117.49 1497 126.49"/>
    <polyline class="cls-1" points="1319 89.49 1319 105.49 1493 108.49 1521 80.49 1521 50.49"/>
    <polyline class="cls-1" points="1306 117.49 1306 193.49 1346 193.49 1346 182.49 1356 182.49"/>
    <polyline class="cls-1" points="1356 149.49 1347 149.49 1347 131.49 1356 131.49"/>
    <line class="cls-1" x1="1347" y1="209.49" x2="1347" y2="193.49"/>
    <polygon class="cls-1" points="1313 228.49 1306 228.49 1306 287.49 1302 290.49 1302 295.49 1313 295.49 1313 228.49"/>
    <line class="cls-1" x1="1306" y1="236.49" x2="1313" y2="236.49"/>
    <path class="cls-1" d="M1303.5,379.5s8,26,24,26h120l2-37" transform="translate(0.5 -0.01)"/>
    <polyline class="cls-1" points="1460 368.49 1460 405.49 1526.5 405.49 1531 405.49 1546 376.49"/>
    <polyline class="cls-1" points="1527 405.49 1538 379.49 1471 379.49 1460 401.99"/>
    <line class="cls-1" x1="1473.13" y1="405.49" x2="1485.13" y2="379.49"/>
    <line class="cls-1" x1="1486.63" y1="405.49" x2="1498" y2="379.49"/>
    <line class="cls-1" x1="1500.13" y1="405.49" x2="1510.88" y2="379.49"/>
    <line class="cls-1" x1="1513.63" y1="405.49" x2="1525.13" y2="379.49"/>
    <polyline class="cls-1" points="1433.13 405.49 1444 379.49 1431 379.49 1420.75 405.49"/>
    <polyline class="cls-1" points="1407.75 405.49 1417 379.49 1431 379.49"/>
    <polyline class="cls-1" points="1394 405.49 1405 379.49 1417 379.49"/>
    <polyline class="cls-1" points="1381.5 405.49 1393 379.49 1405 379.49"/>
    <polyline class="cls-1" points="1393 379.49 1380 379.49 1368 405.49"/>
    <polyline class="cls-1" points="1354 405.49 1366 379.49 1368 379.49 1380 379.49"/>
    <polyline class="cls-1" points="1368 360.99 1368 377.82 1368 379.49"/>
    <path class="cls-1" d="M1374.5,377.67" transform="translate(0.5 -0.01)"/>
    <line class="cls-1" x1="1368" y1="377.49" x2="1375" y2="377.49"/>
    <line class="cls-1" x1="1368" y1="375.07" x2="1375" y2="375.07"/>
    <line class="cls-1" x1="1368" y1="372.82" x2="1375" y2="372.82"/>
    <polyline class="cls-1" points="1375 370.45 1368 370.45 1368 368.49 1375 368.49 1375 366.45 1368 366.45 1368 364.49 1375 364.49 1375 362.41 1368 362.41 1368 360.49 1375 360.49 1375 379.49"/>
    <polyline class="cls-1" points="1375 366.49 1383 366.49 1383 360.49 1354 360.49 1354 366.49 1368 366.49"/>
    <path class="cls-1" d="M1552.5,392.5s-2,13,10,13h83s15-3,17,13a147.16,147.16,0,0,1,0,32s1,5-11,11h-23s-9,2-9,10v202l7,10,1,89h11l-5,27h16v18h-20l-16,94-298-21v-117h104l-1-92s5-14-11-19-125-37-125-37l-30-9s-15-4-21,12v15h5" transform="translate(0.5 -0.01)"/>
    <polyline class="cls-1" points="1283 643.49 1297 643.49 1297 678.49 1283 678.49"/>
    <polyline class="cls-1" points="1629.88 818.2 1628 817.49 1628 799.49 1634.75 799.49"/>
    <polygon class="cls-1" points="1587 675.49 1594 675.49 1594 656.49 1602 656.49 1602 627.49 1587 627.49 1587 675.49"/>
    <polyline class="cls-1" points="1298.16 629.94 1303 659.49 1316 663.49 1311.93 633.99"/>
    <polyline class="cls-1" points="1324.19 637.6 1329 667.49 1316 663.49"/>
    <polyline class="cls-1" points="1337.74 641.59 1342 671.49 1329 667.49"/>
    <polyline class="cls-1" points="1349.29 645 1354 674.49 1341.15 671.23"/>
    <polyline class="cls-1" points="1362.39 648.87 1367 678.49 1354 674.49"/>
    <polyline class="cls-1" points="1374.8 652.54 1379 682.49 1367 678.49"/>
    <polyline class="cls-1" points="1388.26 656.54 1392 685.49 1379 682.49"/>
    <polyline class="cls-1" points="1401.04 660.37 1405 689.49 1392 685.49"/>
    <polyline class="cls-1" points="1235 657.49 1231 662.49 1231 792.49 1231 799.49 1199 799.49"/>
    <path class="cls-1" d="M1199.5,663.5h20l-23-57s0-7-17-12-67-19-67-19a13.41,13.41,0,0,0-17,5c-7,10,3,10,3,10" transform="translate(0.5 -0.01)"/>
    <path class="cls-1" d="M1097.5,602.5s-3-2-4,3,0,160,0,160h-62v-156h40v-20s-4-13-16-13l-79,49v69l27,10s20,28,19,35-1,19-16,28-32-3-32-3-11-10-12-18,0-158,0-158l-10-8" transform="translate(0.5 -0.01)"/>
    <polyline class="cls-1" points="977 634.49 1005 645.49 1005 705.91"/>
    <line class="cls-1" x1="977" y1="682.49" x2="1005" y2="692.99"/>
    <line class="cls-1" x1="977" y1="670.2" x2="1005" y2="682.49"/>
    <line class="cls-1" x1="977" y1="657.49" x2="1005" y2="667.52"/>
    <line class="cls-1" x1="977" y1="645" x2="1005" y2="656.54"/>
    <path class="cls-1" d="M951.5,574.5s10,1,11-4,2-7-2-12l-45-1-28,15s-6,2-6,12v36s3,11,16,7" transform="translate(0.5 -0.01)"/>
    <path class="cls-1" d="M897.5,641.5h-131s-14,0-15,16a315.24,315.24,0,0,0,0,33l14,6" transform="translate(0.5 -0.01)"/>
    <polyline class="cls-1" points="766 704.49 752 705.49 752 770.49 766 776.49"/>
    <path class="cls-1" d="M765.5,783.5l-14,3v33s-2,26-29,27-30-22-30-22v-6l12-1v-56" transform="translate(0.5 -0.01)"/>
    <polyline class="cls-1" points="705 790.49 719 777.49 719 736.49 701 733.49 701 727.49 719 724.49 719 690.49 701 685.49 701 678.49 719 676.49 720 337.49 701 337.49"/>
    <path class="cls-1" d="M792.5,618.5l65-32s10-4,10,3v29s0,8-8,8h-63s-7,0-4-8" transform="translate(0.5 -0.01)"/>
    <path class="cls-1" d="M767.5,618.5l146-72h56s24-1,24-17v-175s0-18-28-17-197,0-197,0-17,2-17,21v245S748.5,620.5,767.5,618.5Z" transform="translate(0.5 -0.01)"/>
    <polyline class="cls-1" points="994 370.74 969 382.49 968.77 537.49 968.75 546.49"/>
    <line class="cls-1" x1="994" y1="524.99" x2="968.75" y2="538.49"/>
    <line class="cls-1" x1="994" y1="513.99" x2="968.79" y2="524.99"/>
    <line class="cls-1" x1="994" y1="500.24" x2="968.81" y2="511.49"/>
    <line class="cls-1" x1="994" y1="487.49" x2="968.82" y2="500.24"/>
    <line class="cls-1" x1="994" y1="474.99" x2="968.84" y2="487.49"/>
    <line class="cls-1" x1="994" y1="461.99" x2="968.87" y2="473.24"/>
    <line class="cls-1" x1="994" y1="447.99" x2="968.89" y2="459.99"/>
    <line class="cls-1" x1="968.75" y1="447.99" x2="994" y2="435.99"/>
    <line class="cls-1" x1="994" y1="422.24" x2="968.92" y2="434.99"/>
    <line class="cls-1" x1="994" y1="408.99" x2="968.94" y2="422.24"/>
    <line class="cls-1" x1="994" y1="397.24" x2="968.96" y2="408.99"/>
    <line class="cls-1" x1="994" y1="383.74" x2="968.98" y2="397.24"/>
    <rect class="cls-1" x="811" y="530.49" width="38" height="42"/>
    <path class="cls-1" d="M1449.5,641.5l-2-207h-113s-27-2-28,32-1,110-1,110-7,22,31,33S1449.5,641.5,1449.5,641.5Z" transform="translate(0.5 -0.01)"/>
    <polyline class="cls-1" points="1339.01 610.07 1361 588.49 1440 612.49 1418.7 632.7"/>
    <line class="cls-1" x1="1352.22" y1="613.86" x2="1373" y2="592.13"/>
    <line class="cls-1" x1="1387.32" y1="596.48" x2="1365" y2="617.51"/>
    <line class="cls-1" x1="1400.35" y1="600.44" x2="1379.53" y2="621.64"/>
    <line class="cls-1" x1="1413.72" y1="604.5" x2="1392.57" y2="625.33"/>
    <line class="cls-1" x1="1426.53" y1="608.4" x2="1406.04" y2="629.13"/>
    <polyline class="cls-1" points="1354 434.47 1365 460.49 1446 460.49 1433.59 434.49"/>
    <line class="cls-1" x1="1419.25" y1="434.49" x2="1433" y2="460.49"/>
    <line class="cls-1" x1="1407.5" y1="434.49" x2="1419.25" y2="460.49"/>
    <line class="cls-1" x1="1394" y1="434.49" x2="1405.75" y2="460.49"/>
    <line class="cls-1" x1="1380.75" y1="434.49" x2="1392.59" y2="460.49"/>
    <line class="cls-1" x1="1367.84" y1="434.49" x2="1379.25" y2="460.49"/>
    <path class="cls-1" d="M1445.5,645v24.5h-8v-24l22-2v-209h108s24,6,22,25" transform="translate(0.5 -0.01)"/>
    <line class="cls-1" x1="1474.25" y1="434.47" x2="1485" y2="460.49"/>
    <line class="cls-1" x1="1488.5" y1="434.49" x2="1499" y2="460.49"/>
    <line class="cls-1" x1="1500.13" y1="434.49" x2="1510.88" y2="460.49"/>
    <line class="cls-1" x1="1514.06" y1="434.47" x2="1525.13" y2="460.49"/>
    <polyline class="cls-1" points="1527.75 434.49 1538 460.49 1485.13 460.49 1471 460.49 1460 434.49"/>
    <polyline class="cls-1" points="171 510.49 361 510.49 363 843.49 252 831.49 137 886.49"/>
    <polyline class="cls-1" points="383 659.49 374 659.49 374 638.49 533 638.49 533 804.49 507 804.49 507 795.49"/>
    <polyline class="cls-1" points="427 795.49 427 804.49 374 804.49 374 704.49 384 704.49"/>
    <polyline class="cls-1" points="646 736.49 637 736.49 637 759.49"/>
    <polyline class="cls-1" points="588 759.49 586 759.49 586 818.49 693 818.49"/>
    <path class="cls-1" d="M-38.5,516.5" transform="translate(0.5 -0.01)"/>
    <polygon points="127 5.49 127 13.49 118 13.49 135 30.49 152 14.49 145 14.49 145 5.49 127 5.49"/>
    <polygon points="1280.5 28.99 1280.5 36.99 1271.5 36.99 1288.5 53.99 1305.5 37.99 1298.5 37.99 1298.5 28.99 1280.5 28.99"/>
    <polygon points="578.5 10.99 578.5 18.99 569.5 18.99 586.5 35.99 603.5 19.99 596.5 19.99 596.5 10.99 578.5 10.99"/>
  </g>
</svg>
